<svg height="512" viewBox="0 0 64 64" width="512" xmlns="http://www.w3.org/2000/svg" xmlns:xlink="http://www.w3.org/1999/xlink"><linearGradient id="gradient_ice" gradientUnits="userSpaceOnUse" x1="-12.616" x2="60.316" y1="63.048" y2="2.85"><stop offset="0" stop-color="#fff200"/><stop offset="1" stop-color="#cd118c"/></linearGradient><linearGradient id="gradient_ice-2" x1="-24.672" x2="48.261" xlink:href="#gradient_ice" y1="48.443" y2="-11.755"/><linearGradient id="gradient_ice-3" x1="-15.5" x2="57.433" xlink:href="#gradient_ice" y1="59.555" y2="-.643"/><linearGradient id="gradient_ice-4" x1="-19.762" x2="53.17" xlink:href="#gradient_ice" y1="54.391" y2="-5.807"/><linearGradient id="gradient_ice-5" x1="-10.59" x2="62.342" xlink:href="#gradient_ice" y1="65.503" y2="5.305"/><linearGradient id="gradient_ice-6" x1="-14.853" x2="58.08" xlink:href="#gradient_ice" y1="60.339" y2=".141"/><linearGradient id="gradient_ice-7" x1="-5.681" x2="67.252" xlink:href="#gradient_ice" y1="71.451" y2="11.253"/><linearGradient id="gradient_ice-8" x1="-9.944" x2="62.989" xlink:href="#gradient_ice" y1="66.287" y2="6.088"/><linearGradient id="gradient_ice-9" x1="-.772" x2="72.161" xlink:href="#gradient_ice" y1="77.399" y2="17.201"/><linearGradient id="gradient_ice-10" x1="-2.28" x2="70.652" xlink:href="#gradient_ice" y1="75.571" y2="15.373"/><path d="m46 2h-42a1 1 0 0 0 -1 1v58a1 1 0 0 0 1 1h42a1 1 0 0 0 1-1v-58a1 1 0 0 0 -1-1zm-1 58h-40v-48h40zm0-50h-40v-6h40z" fill="url(#gradient_ice)"/><path d="m8 23h6a1 1 0 0 0 1-1v-6a1 1 0 0 0 -1-1h-6a1 1 0 0 0 -1 1v6a1 1 0 0 0 1 1zm1-6h4v4h-4z" fill="url(#gradient_ice-2)"/><path d="m17 21h26v2h-26z" fill="url(#gradient_ice-3)"/><path d="m8 33h6a1 1 0 0 0 1-1v-6a1 1 0 0 0 -1-1h-6a1 1 0 0 0 -1 1v6a1 1 0 0 0 1 1zm1-6h4v4h-4z" fill="url(#gradient_ice-4)"/><path d="m17 31h26v2h-26z" fill="url(#gradient_ice-5)"/><path d="m8 43h6a1 1 0 0 0 1-1v-6a1 1 0 0 0 -1-1h-6a1 1 0 0 0 -1 1v6a1 1 0 0 0 1 1zm1-6h4v4h-4z" fill="url(#gradient_ice-6)"/><path d="m17 41h26v2h-26z" fill="url(#gradient_ice-7)"/><path d="m8 53h6a1 1 0 0 0 1-1v-6a1 1 0 0 0 -1-1h-6a1 1 0 0 0 -1 1v6a1 1 0 0 0 1 1zm1-6h4v4h-4z" fill="url(#gradient_ice-8)"/><path d="m17 51h26v2h-26z" fill="url(#gradient_ice-9)"/><path d="m60 12-2-.01a3.007 3.007 0 0 0 -3-2.99h-2a3.009 3.009 0 0 0 -3 3v11a1 1 0 0 0 1 1v24a1 1 0 0 0 1 1h4a1 1 0 0 0 1-1v-24a1 1 0 0 0 1-1v-9.01l1 .01v11h2v-12a1 1 0 0 0 -1-1zm-5 35h-2v-2h2zm0-4h-2v-19h2zm1-21h-4v-10a1 1 0 0 1 1-1h2a1 1 0 0 1 1 1z" fill="url(#gradient_ice-10)"/></svg>