<?xml version="1.0" encoding="UTF-8" standalone="no"?><!-- Generator: Gravit.io --><svg xmlns="http://www.w3.org/2000/svg" xmlns:xlink="http://www.w3.org/1999/xlink" style="isolation:isolate" viewBox="0 0 283.465 283.465" width="283.465pt" height="283.465pt"><defs><clipPath id="_clipPath_pHW5teMyx8MujI3nlyunfbJjxHvOTPRl"><rect width="283.465" height="283.465"/></clipPath></defs><g clip-path="url(#_clipPath_pHW5teMyx8MujI3nlyunfbJjxHvOTPRl)"><linearGradient id="_lgradient_9" x1="0" y1="0.5" x2="1" y2="0.5"><stop offset="100%" stop-opacity="1" style="stop-color:rgb(0,0,0)"/><stop offset="100%" stop-opacity="1" style="stop-color:rgb(0,0,0)"/></linearGradient><path d=" M 145.814 7.876 L 150.042 7.986 C 150.042 7.986 186.563 31.675 187.357 77.718 C 187.651 94.749 183.898 108.967 178.247 121.211 C 165.004 128.64 154.771 138.389 149.194 144.871 L 149.158 144.917 C 137.81 158.349 129.631 168.988 123.654 178.073 C 120.507 182.856 117.97 187.209 115.903 191.312 C 109.911 203.208 108.083 213.012 107.002 223.463 C 106.644 226.927 106.73 230.22 107.123 233.328 L 92.4 228.736 C 92.4 228.736 92.742 227.575 92.792 227.379 C 92.835 227.243 93.455 225.186 94.204 221.972 L 98.002 223.156 C 98.002 223.156 98.52 221.56 98.729 220.989 C 99.369 218.593 108.671 184.275 130.972 156.166 C 147.571 135.245 173.495 110.6 172.749 67.343 C 172.236 37.553 156.159 17.644 145.814 7.877 L 145.814 7.876 Z  M 133.476 14.403 Q 147.708 26.686 153.906 40.78 C 150.417 36.026 146.816 32.423 144.004 29.942 C 135.557 36.511 120.08 51.273 117.503 74.031 C 114.955 96.54 123.341 115.441 132.978 133.133 C 131.113 135.419 129.232 137.68 127.361 139.933 C 115.101 117.912 99.449 93.826 102.922 63.146 C 106.033 35.662 126.027 19.571 133.476 14.403 L 133.476 14.403 Z  M 239.816 120.716 C 261.864 128.16 274.73 153.792 266.271 179.17 C 262.341 190.96 252.578 200.175 240.266 205.097 C 227.954 210.018 211.951 209.726 198.836 199.657 C 192.863 195.072 189.47 189.305 187.545 183.47 C 188.46 184.383 189.455 185.264 190.548 186.102 C 202.538 195.307 216.837 195.525 228.129 191.011 C 239.42 186.497 248.416 177.828 251.863 167.486 C 257.978 149.142 252.116 131.022 239.816 120.716 L 239.816 120.716 Z  M 211.859 124.568 C 215.496 124.559 219.153 125.036 222.79 126.101 C 231.17 128.555 237.921 135.498 240.339 144.74 C 238.011 142.685 235.295 141.168 232.372 140.312 C 229.473 139.463 226.544 139.029 223.608 138.95 C 214.801 138.713 205.932 141.676 197.64 146.268 C 197.372 146.416 197.179 146.622 196.913 146.773 L 208.505 159.203 C 208.505 159.203 206.602 163.591 206.208 169.031 C 205.895 173.365 206.233 177.173 208.988 180.546 C 205.486 179.889 201.969 178.367 198.519 175.718 C 192.134 170.816 191.162 164.515 191.611 158.304 C 192.061 152.093 194.239 147.147 194.239 147.147 L 186.006 138.318 C 186.006 138.318 163.989 146.705 156.203 172.202 C 147.95 199.225 163.704 224.164 163.704 224.164 L 174.876 217.348 C 174.876 217.348 162.551 196.239 168.725 176.026 C 171.06 168.378 174.837 163.361 178.594 159.454 C 178.449 166.404 180.042 174.787 185.889 181.681 C 184.883 183.467 183.882 185.258 183.164 187.61 C 177.615 205.781 188.911 225.744 188.911 225.744 L 171.031 236.649 C 171.031 236.649 168.797 232.436 166.42 226.72 C 166.429 228.357 166.659 229.881 166.558 231.572 C 166.383 260.519 145.814 275 145.814 275 L 137.532 275 L 129.25 275 C 129.25 275 122.656 269.678 117.519 257.555 C 120.462 261.364 122.868 263.487 122.868 263.487 L 131.217 263.8 C 131.217 263.8 151.839 248.042 151.96 221.029 C 153.055 203.244 147.314 188.594 142.517 174.439 C 147.157 168.199 152.133 161.681 159.119 153.41 C 163.765 148.01 173.441 138.822 185.055 132.391 C 193.403 127.769 202.565 124.586 211.859 124.568 L 211.859 124.568 Z  M 87.751 124.601 C 94.05 127.361 99.661 130.878 104.404 134.508 C 108.123 137.354 111.25 140.24 114.06 143.044 C 115.645 145.812 117.164 148.488 118.546 151.058 C 112.179 159.504 107.077 168.083 102.696 176.506 C 101.767 171.54 100.443 166.573 98.069 161.8 C 93.547 152.713 87.396 147.382 82.285 144.533 C 77.175 141.684 72.525 141.149 72.525 141.149 L 72.462 141.238 C 69.417 140.41 66.235 139.926 62.897 139.912 C 59.195 139.898 55.322 140.436 51.284 141.666 C 43.153 144.141 38.918 148.621 36.622 154.31 C 34.326 159.999 34.33 167.253 37.153 174.38 C 38.179 176.97 39.49 179.189 41.025 181.043 C 33.122 179.638 26.346 174.296 22.816 165.384 C 19.661 157.417 19.581 149.132 22.299 142.397 C 25.018 135.661 30.316 130.25 39.464 127.466 C 57.113 122.093 72.026 128.887 83.38 137.576 C 94.734 146.264 101.49 156.375 101.49 156.375 L 112.396 149.13 C 112.396 149.13 104.602 137.332 91.336 127.18 C 90.194 126.306 88.987 125.448 87.751 124.601 L 87.751 124.601 Z  M 81.518 160.625 C 83.162 162.419 84.827 164.567 86.35 167.63 C 90.042 175.05 90.879 184.068 90.482 192.445 C 90.278 192.738 90.075 193.033 89.857 193.323 C 85.283 199.407 78.043 204.247 68.526 207.045 C 48.207 213.017 25.901 202.852 17.678 182.089 C 17.59 181.869 17.515 181.646 17.431 181.426 C 27.073 192.551 42.346 197.066 56.735 192.837 C 65.629 190.222 72.023 185.852 76.031 180.519 C 80.04 175.187 81.513 169.169 81.712 163.898 C 81.755 162.738 81.577 161.728 81.518 160.625 L 81.518 160.625 Z  M 133.179 188.223 C 136.171 197.347 138.754 206.222 138.986 215.599 C 136.286 222.414 135.391 228.114 134.611 235.652 C 134.481 236.909 134.455 238.135 134.512 239.327 C 132.333 243.424 129.723 246.439 127.597 248.624 C 123.786 243.895 118.836 236.293 120.024 224.807 C 121.045 214.937 122.372 207.562 127.591 197.202 C 128.875 194.654 131.345 191.188 133.179 188.223 Z " fill-rule="evenodd" fill="rgb(255,255,255)" vector-effect="non-scaling-stroke" stroke-width="3" stroke="url(#_lgradient_9)" stroke-linejoin="bevel" stroke-linecap="butt" stroke-miterlimit="4"/></g></svg>