<?xml version="1.0" encoding="UTF-8" standalone="no"?><!-- Generator: Gravit.io --><svg xmlns="http://www.w3.org/2000/svg" xmlns:xlink="http://www.w3.org/1999/xlink" style="isolation:isolate" viewBox="0 0 24 24" width="24pt" height="24pt"><defs><clipPath id="_clipPath_08F43onvLng2twsVfs5TfyYOlT4LJz61"><rect width="24" height="24"/></clipPath></defs><g clip-path="url(#_clipPath_08F43onvLng2twsVfs5TfyYOlT4LJz61)"><clipPath id="_clipPath_6qts23i9DaEsqWv6VfUSE8UCF1u6jQV4"><rect x="-0.125" y="0.063" width="24" height="24" transform="matrix(1,0,0,1,0,0)" fill="rgb(255,255,255)"/></clipPath><g clip-path="url(#_clipPath_6qts23i9DaEsqWv6VfUSE8UCF1u6jQV4)"><g><linearGradient id="_lgradient_0" x1="0" y1="0.5" x2="0.7447366897810284" y2="-0.16735842161015058" gradientTransform="matrix(0.8,0,0,0.8,15.075,21.263)" gradientUnits="userSpaceOnUse"><stop offset="0%" stop-opacity="1" style="stop-color:rgb(233,141,63)"/><stop offset="100%" stop-opacity="1" style="stop-color:rgb(254,239,2)"/></linearGradient><path d=" M 15.075 21.263 L 15.875 21.263 L 15.875 22.063 L 15.075 22.063 L 15.075 21.263 Z " fill="url(#_lgradient_0)"/><linearGradient id="_lgradient_1" x1="0" y1="0.5" x2="0.7447366897810301" y2="-0.16735842161015102" gradientTransform="matrix(0.8,0,0,0.8,5.075,21.263)" gradientUnits="userSpaceOnUse"><stop offset="0%" stop-opacity="1" style="stop-color:rgb(233,141,63)"/><stop offset="100%" stop-opacity="1" style="stop-color:rgb(254,239,2)"/></linearGradient><path d=" M 5.075 21.263 L 5.875 21.263 L 5.875 22.063 L 5.075 22.063 L 5.075 21.263 Z " fill="url(#_lgradient_1)"/><linearGradient id="_lgradient_2" x1="0" y1="0.5" x2="0.7447366897810301" y2="-0.16735842161015102" gradientTransform="matrix(0.8,0,0,0.8,7.075,21.263)" gradientUnits="userSpaceOnUse"><stop offset="0%" stop-opacity="1" style="stop-color:rgb(233,141,63)"/><stop offset="100%" stop-opacity="1" style="stop-color:rgb(254,239,2)"/></linearGradient><path d=" M 7.075 21.263 L 7.875 21.263 L 7.875 22.063 L 7.075 22.063 L 7.075 21.263 Z " fill="url(#_lgradient_2)"/><linearGradient id="_lgradient_3" x1="0" y1="0.5" x2="0.7447366897810284" y2="-0.16735842161015058" gradientTransform="matrix(0.8,0,0,0.8,9.075,21.263)" gradientUnits="userSpaceOnUse"><stop offset="0%" stop-opacity="1" style="stop-color:rgb(233,141,63)"/><stop offset="100%" stop-opacity="1" style="stop-color:rgb(254,239,2)"/></linearGradient><path d=" M 9.075 21.263 L 9.875 21.263 L 9.875 22.063 L 9.075 22.063 L 9.075 21.263 Z " fill="url(#_lgradient_3)"/><linearGradient id="_lgradient_4" x1="0" y1="0.5" x2="0.7447366897810284" y2="-0.16735842161015058" gradientTransform="matrix(0.8,0,0,0.8,11.075,21.263)" gradientUnits="userSpaceOnUse"><stop offset="0%" stop-opacity="1" style="stop-color:rgb(233,141,63)"/><stop offset="100%" stop-opacity="1" style="stop-color:rgb(254,239,2)"/></linearGradient><path d=" M 11.075 21.263 L 11.875 21.263 L 11.875 22.063 L 11.075 22.063 L 11.075 21.263 Z " fill="url(#_lgradient_4)"/><linearGradient id="_lgradient_5" x1="0" y1="0.49999999999999645" x2="0.7447366897810294" y2="-0.1673584216101539" gradientTransform="matrix(0.8,0,0,0.8,5.075,19.263)" gradientUnits="userSpaceOnUse"><stop offset="0%" stop-opacity="1" style="stop-color:rgb(233,141,63)"/><stop offset="100%" stop-opacity="1" style="stop-color:rgb(254,239,2)"/></linearGradient><path d=" M 5.075 19.263 L 5.875 19.263 L 5.875 20.063 L 5.075 20.063 L 5.075 19.263 Z " fill="url(#_lgradient_5)"/><linearGradient id="_lgradient_6" x1="0" y1="0.49999999999999645" x2="0.7447366897810294" y2="-0.1673584216101539" gradientTransform="matrix(0.8,0,0,0.8,7.075,19.263)" gradientUnits="userSpaceOnUse"><stop offset="0%" stop-opacity="1" style="stop-color:rgb(233,141,63)"/><stop offset="100%" stop-opacity="1" style="stop-color:rgb(254,239,2)"/></linearGradient><path d=" M 7.075 19.263 L 7.875 19.263 L 7.875 20.063 L 7.075 20.063 L 7.075 19.263 Z " fill="url(#_lgradient_6)"/><linearGradient id="_lgradient_7" x1="0" y1="0.49999999999999645" x2="0.7447366897810278" y2="-0.16735842161015357" gradientTransform="matrix(0.8,0,0,0.8,9.075,19.263)" gradientUnits="userSpaceOnUse"><stop offset="0%" stop-opacity="1" style="stop-color:rgb(233,141,63)"/><stop offset="100%" stop-opacity="1" style="stop-color:rgb(254,239,2)"/></linearGradient><path d=" M 9.075 19.263 L 9.875 19.263 L 9.875 20.063 L 9.075 20.063 L 9.075 19.263 Z " fill="url(#_lgradient_7)"/><linearGradient id="_lgradient_8" x1="0" y1="0.49999999999999645" x2="0.7447366897810278" y2="-0.16735842161015357" gradientTransform="matrix(0.8,0,0,0.8,11.075,19.263)" gradientUnits="userSpaceOnUse"><stop offset="0%" stop-opacity="1" style="stop-color:rgb(233,141,63)"/><stop offset="100%" stop-opacity="1" style="stop-color:rgb(254,239,2)"/></linearGradient><path d=" M 11.075 19.263 L 11.875 19.263 L 11.875 20.063 L 11.075 20.063 L 11.075 19.263 Z " fill="url(#_lgradient_8)"/><linearGradient id="_lgradient_9" x1="0" y1="0.49999999999999645" x2="0.7447366897810278" y2="-0.16735842161015357" gradientTransform="matrix(0.8,0,0,0.8,13.075,19.263)" gradientUnits="userSpaceOnUse"><stop offset="0%" stop-opacity="1" style="stop-color:rgb(233,141,63)"/><stop offset="100%" stop-opacity="1" style="stop-color:rgb(254,239,2)"/></linearGradient><path d=" M 13.075 19.263 L 13.875 19.263 L 13.875 20.063 L 13.075 20.063 L 13.075 19.263 Z " fill="url(#_lgradient_9)"/><linearGradient id="_lgradient_10" x1="0" y1="0.49999999999999645" x2="0.7447366897810278" y2="-0.16735842161015357" gradientTransform="matrix(0.8,0,0,0.8,15.075,19.263)" gradientUnits="userSpaceOnUse"><stop offset="0%" stop-opacity="1" style="stop-color:rgb(233,141,63)"/><stop offset="100%" stop-opacity="1" style="stop-color:rgb(254,239,2)"/></linearGradient><path d=" M 15.075 19.263 L 15.875 19.263 L 15.875 20.063 L 15.075 20.063 L 15.075 19.263 Z " fill="url(#_lgradient_10)"/><linearGradient id="_lgradient_11" x1="0" y1="0.5" x2="0.7447366897810284" y2="-0.16735842161015058" gradientTransform="matrix(0.8,0,0,0.8,13.075,21.263)" gradientUnits="userSpaceOnUse"><stop offset="0%" stop-opacity="1" style="stop-color:rgb(233,141,63)"/><stop offset="100%" stop-opacity="1" style="stop-color:rgb(254,239,2)"/></linearGradient><path d=" M 13.075 21.263 L 13.875 21.263 L 13.875 22.063 L 13.075 22.063 L 13.075 21.263 Z " fill="url(#_lgradient_11)"/><linearGradient id="_lgradient_12" x1="0" y1="0.5" x2="0.6423830437218566" y2="-0.26638373230297874" gradientTransform="matrix(20.8,0,0,24,1.475,0.063)" gradientUnits="userSpaceOnUse"><stop offset="0%" stop-opacity="1" style="stop-color:rgb(229,126,72)"/><stop offset="100%" stop-opacity="1" style="stop-color:rgb(254,239,2)"/></linearGradient><path d=" M 21.075 9.663 L 19.075 9.663 L 19.075 1.263 C 19.073 0.601 18.537 0.065 17.875 0.063 L 2.675 0.063 C 2.013 0.065 1.477 0.601 1.475 1.263 L 1.475 10.863 C 1.477 11.525 2.013 12.061 2.675 12.063 L 9.075 12.063 L 9.075 12.863 L 7.475 12.863 C 7.254 12.863 7.075 13.042 7.075 13.263 L 7.075 14.463 L 6.275 14.463 L 6.275 15.263 L 14.275 15.263 L 14.275 14.463 L 13.475 14.463 L 13.475 13.263 C 13.475 13.042 13.296 12.863 13.075 12.863 L 11.475 12.863 L 11.475 12.063 L 17.875 12.063 C 18.537 12.061 19.073 11.525 19.075 10.863 L 19.075 10.463 L 21.075 10.463 C 21.296 10.463 21.475 10.642 21.475 10.863 L 21.475 15.663 C 21.475 15.884 21.296 16.063 21.075 16.063 L 11.075 16.063 C 10.413 16.065 9.877 16.601 9.875 17.263 L 9.875 17.663 L 3.875 17.663 C 3.213 17.665 2.677 18.201 2.675 18.863 L 2.675 22.863 C 2.677 23.525 3.213 24.061 3.875 24.063 L 16.675 24.063 C 17.337 24.061 17.873 23.525 17.875 22.863 L 17.875 18.863 C 17.873 18.201 17.337 17.665 16.675 17.663 L 10.675 17.663 L 10.675 17.263 C 10.675 17.042 10.854 16.863 11.075 16.863 L 21.075 16.863 C 21.737 16.861 22.273 16.325 22.275 15.663 L 22.275 10.863 C 22.273 10.201 21.737 9.665 21.075 9.663 L 21.075 9.663 Z  M 12.675 13.663 L 12.675 14.463 L 7.875 14.463 L 7.875 13.663 L 12.675 13.663 Z  M 9.875 12.863 L 9.875 12.063 L 10.675 12.063 L 10.675 12.863 L 9.875 12.863 Z  M 18.275 10.863 C 18.275 11.084 18.096 11.263 17.875 11.263 L 2.675 11.263 C 2.454 11.263 2.275 11.084 2.275 10.863 L 2.275 1.263 C 2.275 1.042 2.454 0.863 2.675 0.863 L 17.875 0.863 C 18.096 0.863 18.275 1.042 18.275 1.263 L 18.275 10.863 Z  M 16.675 18.463 C 16.896 18.463 17.075 18.642 17.075 18.863 L 17.075 22.863 C 17.075 23.084 16.896 23.263 16.675 23.263 L 3.875 23.263 C 3.654 23.263 3.475 23.084 3.475 22.863 L 3.475 18.863 C 3.475 18.642 3.654 18.463 3.875 18.463 L 16.675 18.463 Z " fill="url(#_lgradient_12)"/><linearGradient id="_lgradient_13" x1="0" y1="0.49999999999999994" x2="0.8790277851102558" y2="0.2114283540726143" gradientTransform="matrix(15.2,0,0,9.2,2.675,1.263)" gradientUnits="userSpaceOnUse"><stop offset="0%" stop-opacity="1" style="stop-color:rgb(240,175,41)"/><stop offset="100%" stop-opacity="1" style="stop-color:rgb(254,239,2)"/></linearGradient><path d=" M 17.475 1.263 L 3.075 1.263 C 2.854 1.263 2.675 1.442 2.675 1.663 L 2.675 10.063 C 2.675 10.284 2.854 10.463 3.075 10.463 L 17.475 10.463 C 17.696 10.463 17.875 10.284 17.875 10.063 L 17.875 1.663 C 17.875 1.442 17.696 1.263 17.475 1.263 Z  M 17.075 9.663 L 3.475 9.663 L 3.475 2.063 L 17.075 2.063 L 17.075 9.663 Z " fill="url(#_lgradient_13)"/><linearGradient id="_lgradient_14" x1="0" y1="0.5" x2="0.8790277851102564" y2="0.2113948964904777" gradientTransform="matrix(3,0,0,1.816,4.675,2.263)" gradientUnits="userSpaceOnUse"><stop offset="0%" stop-opacity="1" style="stop-color:rgb(240,175,41)"/><stop offset="100%" stop-opacity="1" style="stop-color:rgb(254,239,2)"/></linearGradient><path d=" M 7.596 2.263 L 4.754 2.263 C 4.71 2.263 4.675 2.298 4.675 2.342 L 4.675 4 C 4.675 4.043 4.71 4.079 4.754 4.079 L 7.596 4.079 C 7.64 4.079 7.675 4.043 7.675 4 L 7.675 2.342 C 7.675 2.298 7.64 2.263 7.596 2.263 Z  M 7.517 3.921 L 4.833 3.921 L 4.833 2.421 L 7.517 2.421 L 7.517 3.921 Z " fill="url(#_lgradient_14)"/><linearGradient id="_lgradient_15" x1="0" y1="0.5" x2="0.8790277851102564" y2="0.2113948964904777" gradientTransform="matrix(3,0,0,1.816,4.675,4.263)" gradientUnits="userSpaceOnUse"><stop offset="0%" stop-opacity="1" style="stop-color:rgb(240,175,41)"/><stop offset="100%" stop-opacity="1" style="stop-color:rgb(254,239,2)"/></linearGradient><path d=" M 7.596 4.263 L 4.754 4.263 C 4.71 4.263 4.675 4.298 4.675 4.342 L 4.675 6 C 4.675 6.043 4.71 6.079 4.754 6.079 L 7.596 6.079 C 7.64 6.079 7.675 6.043 7.675 6 L 7.675 4.342 C 7.675 4.298 7.64 4.263 7.596 4.263 Z  M 7.517 5.921 L 4.833 5.921 L 4.833 4.421 L 7.517 4.421 L 7.517 5.921 Z " fill="url(#_lgradient_15)"/><linearGradient id="_lgradient_16" x1="0" y1="0.5" x2="0.8790277851102564" y2="0.2113948964904777" gradientTransform="matrix(3,0,0,1.816,4.675,6.263)" gradientUnits="userSpaceOnUse"><stop offset="0%" stop-opacity="1" style="stop-color:rgb(240,175,41)"/><stop offset="100%" stop-opacity="1" style="stop-color:rgb(254,239,2)"/></linearGradient><path d=" M 7.596 6.263 L 4.754 6.263 C 4.71 6.263 4.675 6.298 4.675 6.342 L 4.675 8 C 4.675 8.043 4.71 8.079 4.754 8.079 L 7.596 8.079 C 7.64 8.079 7.675 8.043 7.675 8 L 7.675 6.342 C 7.675 6.298 7.64 6.263 7.596 6.263 Z  M 7.517 7.921 L 4.833 7.921 L 4.833 6.421 L 7.517 6.421 L 7.517 7.921 Z " fill="url(#_lgradient_16)"/><linearGradient id="_lgradient_17" x1="0" y1="0.49996875976257404" x2="0.7445205499272303" y2="-0.1675890864392071" gradientTransform="matrix(4,0,0,4.001,10.075,3.463)" gradientUnits="userSpaceOnUse"><stop offset="0%" stop-opacity="1" style="stop-color:rgb(233,141,63)"/><stop offset="100%" stop-opacity="1" style="stop-color:rgb(254,239,2)"/></linearGradient><path d=" M 10.207 7.433 C 10.288 7.477 10.387 7.472 10.464 7.421 L 11.093 7.001 L 11.963 7.438 C 12.034 7.473 12.116 7.473 12.187 7.438 L 13.057 7.003 L 13.686 7.422 C 13.763 7.474 13.862 7.478 13.943 7.434 C 14.025 7.391 14.075 7.305 14.075 7.213 L 14.075 5.463 C 14.075 4.358 13.18 3.463 12.075 3.463 C 10.97 3.463 10.075 4.358 10.075 5.463 L 10.075 7.213 C 10.075 7.305 10.126 7.39 10.207 7.433 L 10.207 7.433 Z  M 10.575 5.463 C 10.575 4.635 11.247 3.963 12.075 3.963 C 12.903 3.963 13.575 4.635 13.575 5.463 L 13.575 6.746 L 13.214 6.505 C 13.139 6.455 13.044 6.449 12.964 6.489 L 12.075 6.933 L 11.187 6.489 C 11.107 6.449 11.011 6.455 10.937 6.505 L 10.575 6.746 L 10.575 5.463 Z " fill="url(#_lgradient_17)"/></g></g></g></svg>