<?xml version="1.0" encoding="UTF-8" standalone="no"?><!-- Generator: Gravit.io --><svg xmlns="http://www.w3.org/2000/svg" xmlns:xlink="http://www.w3.org/1999/xlink" style="isolation:isolate" viewBox="0 0 436 436" width="436pt" height="436pt"><defs><clipPath id="_clipPath_yoZWzNvY3BlUWC9ZrugUUuoRzjuV1c33"><rect width="436" height="436"/></clipPath></defs><g clip-path="url(#_clipPath_yoZWzNvY3BlUWC9ZrugUUuoRzjuV1c33)"><clipPath id="_clipPath_gL3JTi04Cv1L09iycFYOFcpgbbO3bOiI"><rect x="0" y="0" width="512" height="512" transform="matrix(1,0,0,1,0,0)" fill="rgb(255,255,255)"/></clipPath><g clip-path="url(#_clipPath_gL3JTi04Cv1L09iycFYOFcpgbbO3bOiI)"><g><g><g><g><path d=" M 399.666 0 L 36.334 0 C 15.986 0 0 15.986 0 36.334 L 0 399.667 C 0 420.014 15.986 436 36.334 436 L 203.467 436 L 290.667 436 L 399.667 436 C 420.014 436 436 420.014 436 399.666 L 436 36.334 C 436 15.986 420.014 0 399.666 0 Z  M 218 421.466 L 218 276.134 L 159.866 276.134 L 159.866 218 L 218 218 L 218 167.134 C 218 125.714 249.974 90.834 290.666 87.2 L 356.066 87.2 L 356.066 145.334 L 297.933 145.334 C 285.579 145.334 276.133 154.78 276.133 167.134 L 276.133 218 L 348.8 218 L 348.8 276.134 L 276.134 276.134 L 276.134 422.375 L 218 421.467 L 218 421.466 Z  M 421.466 399.666 C 421.466 412.02 412.02 422.375 399.666 422.375 L 290.666 422.375 L 290.666 290.666 L 363.333 290.666 L 363.333 203.466 L 290.666 203.466 L 290.666 167.133 C 290.666 162.773 293.573 159.866 297.933 159.866 L 370.6 159.866 L 370.6 72.666 L 289.94 72.666 C 241.254 77.026 203.466 118.446 203.466 167.133 L 203.466 203.466 L 145.333 203.466 L 145.333 290.666 L 203.466 290.666 L 203.466 422.375 L 36.334 421.523 C 23.98 421.523 13.625 412.02 13.625 399.666 L 14.534 36.334 C 14.534 23.98 23.98 13.625 36.334 13.625 L 399.667 13.625 C 412.021 13.625 422.375 23.98 422.375 36.334 L 421.467 399.666 L 421.466 399.666 Z " fill="rgb(0,0,0)"/></g></g></g></g></g></g></svg>