<?xml version="1.0" encoding="UTF-8" standalone="no"?><!-- Generator: Gravit.io --><svg xmlns="http://www.w3.org/2000/svg" xmlns:xlink="http://www.w3.org/1999/xlink" style="isolation:isolate" viewBox="0 0 436 436" width="436pt" height="436pt"><defs><clipPath id="_clipPath_E5V66wUX9lmojL5PF959ITPk6KfVsFtw"><rect width="436" height="436"/></clipPath></defs><g clip-path="url(#_clipPath_E5V66wUX9lmojL5PF959ITPk6KfVsFtw)"><path d=" M 436 50.948 C 436 22.81 413.19 0 385.052 0 L 50.948 0 C 22.81 0 0 22.81 0 50.948 L 0 385.048 C -0.001 398.561 5.366 411.521 14.921 421.076 C 24.476 430.632 37.435 436 50.948 436 L 385.048 436 C 398.561 436.001 411.521 430.634 421.076 421.079 C 430.632 411.524 436 398.565 436 385.052 L 436 50.948 Z  M 384.961 420 L 51.039 420 C 31.711 419.943 16.057 404.289 16 384.961 L 16 134 L 120.784 134 C 102.484 157 91.5 185.151 91.5 216.291 C 91.5 288.115 149.933 346.598 221.758 346.598 C 293.583 346.598 352.016 288.09 352.016 216.266 C 352.016 185.127 341.028 157 322.732 134 L 420 134 L 420 384.961 C 419.943 404.289 404.289 419.943 384.961 420 L 384.961 420 Z  M 221.761 102.131 C 284.863 102.133 336.017 153.288 336.016 216.391 C 336.015 279.493 284.86 330.647 221.758 330.647 C 158.655 330.647 107.501 279.492 107.5 216.39 C 107.571 153.316 158.684 102.203 221.758 102.131 L 221.761 102.131 Z  M 51.039 16 L 384.961 16 C 404.289 16.057 419.943 31.711 420 51.039 L 420 118 L 307.254 118 C 258.275 75.244 185.242 75.244 136.263 118 L 16 118 L 16 51.039 C 16.057 31.711 31.711 16.057 51.039 16 L 51.039 16 Z " fill="rgb(0,0,0)"/><path d=" M 337.718 100.376 C 356.665 100.376 372.024 85.017 372.024 66.07 C 372.024 47.123 356.665 31.764 337.718 31.764 C 318.771 31.764 303.412 47.123 303.412 66.07 C 303.433 85.008 318.78 100.355 337.718 100.376 L 337.718 100.376 Z  M 337.718 47.765 C 345.123 47.765 351.798 52.226 354.631 59.067 C 357.464 65.908 355.897 73.782 350.66 79.017 C 345.423 84.252 337.549 85.817 330.708 82.982 C 323.868 80.147 319.41 73.47 319.412 66.065 C 319.426 55.962 327.615 47.776 337.718 47.765 L 337.718 47.765 Z " fill="rgb(0,0,0)"/><path d=" M 221.758 305.715 C 257.887 305.715 290.459 283.951 304.285 250.572 C 318.11 217.193 310.468 178.773 284.921 153.226 C 259.373 127.679 220.953 120.037 187.574 133.863 C 154.195 147.689 132.432 180.261 132.432 216.39 C 132.488 265.7 172.448 305.659 221.758 305.715 L 221.758 305.715 Z  M 221.758 143.063 C 262.255 143.063 295.084 175.892 295.084 216.389 C 295.084 256.885 262.255 289.715 221.759 289.715 C 181.262 289.715 148.433 256.887 148.432 216.39 C 148.478 175.912 181.28 143.109 221.758 143.063 L 221.758 143.063 Z " fill="rgb(0,0,0)"/></g></svg>