<?xml version="1.0" encoding="UTF-8" standalone="no"?><!-- Generator: Gravit.io --><svg xmlns="http://www.w3.org/2000/svg" xmlns:xlink="http://www.w3.org/1999/xlink" style="isolation:isolate" viewBox="0 0 800 600" width="800pt" height="600pt"><defs><clipPath id="_clipPath_yCnNbK7I1Tng7zARTP1INVc033deQrai"><rect width="800" height="600"/></clipPath></defs><g clip-path="url(#_clipPath_yCnNbK7I1Tng7zARTP1INVc033deQrai)"><path d=" M 463.207 231.21 L 471.847 231.734 L 472.371 220.213 L 435.189 216.809 L 428.119 293.53 L 479.703 299.814 L 479.965 285.675 L 470.015 284.365 L 469.753 290.388 L 440.164 286.46 L 446.71 225.712 L 463.207 226.235 L 463.207 231.21 Z " fill="none" vector-effect="non-scaling-stroke" stroke-width="1" stroke="rgb(0,0,0)" stroke-linejoin="miter" stroke-linecap="square" stroke-miterlimit="3"/><g><path d=" M 328.074 162.85 C 328.074 162.85 323.913 157.26 325.226 153.321 C 326.503 149.489 329.892 148.438 329.892 148.438 C 329.892 148.438 328.087 152.443 330.958 154.647 C 334.405 157.293 338.766 154.709 339.666 152.008 C 340.86 148.427 338.997 145.093 336.085 144.241 C 330.922 142.728 325.833 147.198 324.08 149.236 C 318.231 156.159 317.515 158.549 317.157 162.01 C 316.799 165.472 319.494 167.883 319.494 167.883 C 319.494 167.883 322.594 165.501 322.594 161.443 C 322.783 158.522 321.762 156.07 320.902 153.47 M 319.258 149.501 C 317.229 145.562 313.528 140.787 314.244 134.461 C 314.961 128.135 320.595 124.912 320.595 124.912 C 320.595 124.912 326.014 128.397 326.133 135.321 C 326.252 142.244 322.122 146.039 319.258 149.74 C 316.393 153.44 311.76 162.964 311.76 162.964 C 311.76 162.964 316.061 156.443 313.528 151.888 C 312.064 149.255 310.067 148.984 310.067 148.984 C 310.067 148.984 312.523 154.036 307.171 155.609 C 304.518 156.389 301.759 155.159 300.671 152.413 C 299.407 149.221 300.523 145.601 304.218 144.477 C 311.081 142.387 316.038 149.851 316.038 149.851" fill="none" vector-effect="non-scaling-stroke" stroke-width="2" stroke="rgb(255,0,0)" stroke-linejoin="miter" stroke-linecap="butt" stroke-miterlimit="4"/></g><path d=" M 423.668 323.904 L 432.832 323.642 L 420.526 449.852 L 410.314 448.805 L 423.668 323.904 Z " fill="none" vector-effect="non-scaling-stroke" stroke-width="1" stroke="rgb(0,0,0)" stroke-linejoin="miter" stroke-linecap="square" stroke-miterlimit="3"/><path d=" M 410.052 452.733 L 433.618 454.827 L 434.665 446.972 L 445.401 446.972 L 442.521 470.015 L 432.047 468.967 L 432.047 473.157 L 428.905 473.157 L 428.119 477.87 L 412.146 477.084 L 412.932 470.015 L 409.004 470.015 L 410.575 456.66 L 408.219 456.66 L 410.052 452.733 Z " fill="none" vector-effect="non-scaling-stroke" stroke-width="1" stroke="rgb(0,0,0)" stroke-linejoin="miter" stroke-linecap="square" stroke-miterlimit="3"/><path d=" M 393.884 201.325 Q 318.833 197.216 284.046 193.929 Q 267.611 193.107 262.681 177.221" fill="none" vector-effect="non-scaling-stroke" stroke-width="2" stroke="rgb(0,0,0)" stroke-linejoin="miter" stroke-linecap="square" stroke-miterlimit="3"/><path d=" M 243 296 Q 245.217 324.552 237 366 M 386.5 311.75 Q 380 308.25 369.505 307.697 Q 263.552 297.111 260 296.667 C 256.448 296.223 250.505 295.652 242.171 294.955 Q 209.27 292.201 126.686 286.816 M 387.75 290.25 Q 384.75 299.75 370.25 307" fill-rule="evenodd" fill="none" vector-effect="non-scaling-stroke" stroke-width="2" stroke="rgb(0,0,0)" stroke-linejoin="miter" stroke-linecap="square" stroke-miterlimit="3"/><path d=" M 313 265 L 322 265 L 322 270 L 353 273 L 358.8 214 L 341 214 L 341 218 L 332.356 218 L 333.902 200.5 L 373 204 L 362.846 284 L 311 279 L 313 265 Z " fill="none" vector-effect="non-scaling-stroke" stroke-width="1" stroke="rgb(0,0,0)" stroke-linejoin="miter" stroke-linecap="square" stroke-miterlimit="3"/><path d=" M 417.075 519.138 L 415.445 519.138 L 414.927 517.439 L 412.324 517.439 L 411.807 519.138 L 410.176 519.138 L 412.695 511.97 L 414.546 511.97 L 417.075 519.138 Z  M 412.705 516.17 L 414.566 516.17 L 414.566 516.17 Q 413.848 513.86 413.758 513.557 L 413.758 513.557 L 413.758 513.557 Q 413.667 513.255 413.628 513.079 L 413.628 513.079 L 413.628 513.079 Q 413.467 513.704 412.705 516.17 L 412.705 516.17 Z  M 422.845 513.679 L 422.845 519.138 L 421.356 519.138 L 421.356 514.798 L 419.984 514.798 L 419.984 514.798 Q 419.827 516.629 419.603 517.529 L 419.603 517.529 L 419.603 517.529 Q 419.378 518.43 419.005 518.833 L 419.005 518.833 L 419.005 518.833 Q 418.631 519.236 418.026 519.236 L 418.026 519.236 L 418.026 519.236 Q 417.508 519.236 417.176 519.08 L 417.176 519.08 L 417.176 517.888 L 417.176 517.888 Q 417.415 517.986 417.654 517.986 L 417.654 517.986 L 417.654 517.986 Q 417.933 517.986 418.121 517.586 L 418.121 517.586 L 418.121 517.586 Q 418.309 517.185 418.458 516.25 L 418.458 516.25 L 418.458 516.25 Q 418.607 515.315 418.714 513.679 L 418.714 513.679 L 422.845 513.679 Z  M 426.218 514.636 L 426.218 514.636 L 426.218 514.636 Q 425.744 514.636 425.476 514.937 L 425.476 514.937 L 425.476 514.937 Q 425.207 515.237 425.168 515.789 L 425.168 515.789 L 427.258 515.789 L 427.258 515.789 Q 427.248 515.237 426.97 514.937 L 426.97 514.937 L 426.97 514.937 Q 426.692 514.636 426.218 514.636 Z  M 426.428 519.236 L 426.428 519.236 L 426.428 519.236 Q 425.11 519.236 424.367 518.508 L 424.367 518.508 L 424.367 518.508 Q 423.625 517.781 423.625 516.448 L 423.625 516.448 L 423.625 516.448 Q 423.625 515.076 424.311 514.326 L 424.311 514.326 L 424.311 514.326 Q 424.997 513.577 426.208 513.577 L 426.208 513.577 L 426.208 513.577 Q 427.365 513.577 428.01 514.236 L 428.01 514.236 L 428.01 514.236 Q 428.654 514.895 428.654 516.057 L 428.654 516.057 L 428.654 516.78 L 425.134 516.78 L 425.134 516.78 Q 425.158 517.415 425.51 517.771 L 425.51 517.771 L 425.51 517.771 Q 425.862 518.128 426.496 518.128 L 426.496 518.128 L 426.496 518.128 Q 426.989 518.128 427.429 518.025 L 427.429 518.025 L 427.429 518.025 Q 427.868 517.923 428.347 517.698 L 428.347 517.698 L 428.347 518.85 L 428.347 518.85 Q 427.956 519.046 427.512 519.141 L 427.512 519.141 L 427.512 519.141 Q 427.068 519.236 426.428 519.236 Z  M 431.446 516.331 L 433.536 513.679 L 435.177 513.679 L 433.014 516.297 L 435.367 519.138 L 433.678 519.138 L 431.446 516.37 L 431.446 519.138 L 429.957 519.138 L 429.957 513.679 L 431.446 513.679 L 431.446 516.331 Z  M 438.174 519.236 L 438.174 519.236 L 438.174 519.236 Q 435.625 519.236 435.625 516.438 L 435.625 516.438 L 435.625 516.438 Q 435.625 515.047 436.319 514.312 L 436.319 514.312 L 436.319 514.312 Q 437.012 513.577 438.306 513.577 L 438.306 513.577 L 438.306 513.577 Q 439.253 513.577 440.005 513.948 L 440.005 513.948 L 439.566 515.1 L 439.566 515.1 Q 439.214 514.959 438.911 514.868 L 438.911 514.868 L 438.911 514.868 Q 438.609 514.778 438.306 514.778 L 438.306 514.778 L 438.306 514.778 Q 437.144 514.778 437.144 516.428 L 437.144 516.428 L 437.144 516.428 Q 437.144 518.03 438.306 518.03 L 438.306 518.03 L 438.306 518.03 Q 438.736 518.03 439.102 517.915 L 439.102 517.915 L 439.102 517.915 Q 439.468 517.8 439.834 517.556 L 439.834 517.556 L 439.834 518.831 L 439.834 518.831 Q 439.473 519.06 439.104 519.148 L 439.104 519.148 L 439.104 519.148 Q 438.736 519.236 438.174 519.236 Z  M 443.218 514.636 L 443.218 514.636 L 443.218 514.636 Q 442.744 514.636 442.476 514.937 L 442.476 514.937 L 442.476 514.937 Q 442.207 515.237 442.168 515.789 L 442.168 515.789 L 444.258 515.789 L 444.258 515.789 Q 444.248 515.237 443.97 514.937 L 443.97 514.937 L 443.97 514.937 Q 443.692 514.636 443.218 514.636 Z  M 443.428 519.236 L 443.428 519.236 L 443.428 519.236 Q 442.11 519.236 441.367 518.508 L 441.367 518.508 L 441.367 518.508 Q 440.625 517.781 440.625 516.448 L 440.625 516.448 L 440.625 516.448 Q 440.625 515.076 441.311 514.326 L 441.311 514.326 L 441.311 514.326 Q 441.997 513.577 443.208 513.577 L 443.208 513.577 L 443.208 513.577 Q 444.365 513.577 445.01 514.236 L 445.01 514.236 L 445.01 514.236 Q 445.654 514.895 445.654 516.057 L 445.654 516.057 L 445.654 516.78 L 442.134 516.78 L 442.134 516.78 Q 442.158 517.415 442.51 517.771 L 442.51 517.771 L 442.51 517.771 Q 442.862 518.128 443.496 518.128 L 443.496 518.128 L 443.496 518.128 Q 443.989 518.128 444.429 518.025 L 444.429 518.025 L 444.429 518.025 Q 444.868 517.923 445.347 517.698 L 445.347 517.698 L 445.347 518.85 L 445.347 518.85 Q 444.956 519.046 444.512 519.141 L 444.512 519.141 L 444.512 519.141 Q 444.068 519.236 443.428 519.236 Z  M 449.218 514.636 L 449.218 514.636 L 449.218 514.636 Q 448.744 514.636 448.476 514.937 L 448.476 514.937 L 448.476 514.937 Q 448.207 515.237 448.168 515.789 L 448.168 515.789 L 450.258 515.789 L 450.258 515.789 Q 450.248 515.237 449.97 514.937 L 449.97 514.937 L 449.97 514.937 Q 449.692 514.636 449.218 514.636 Z  M 449.428 519.236 L 449.428 519.236 L 449.428 519.236 Q 448.11 519.236 447.367 518.508 L 447.367 518.508 L 447.367 518.508 Q 446.625 517.781 446.625 516.448 L 446.625 516.448 L 446.625 516.448 Q 446.625 515.076 447.311 514.326 L 447.311 514.326 L 447.311 514.326 Q 447.997 513.577 449.208 513.577 L 449.208 513.577 L 449.208 513.577 Q 450.365 513.577 451.01 514.236 L 451.01 514.236 L 451.01 514.236 Q 451.654 514.895 451.654 516.057 L 451.654 516.057 L 451.654 516.78 L 448.134 516.78 L 448.134 516.78 Q 448.158 517.415 448.51 517.771 L 448.51 517.771 L 448.51 517.771 Q 448.862 518.128 449.496 518.128 L 449.496 518.128 L 449.496 518.128 Q 449.989 518.128 450.429 518.025 L 450.429 518.025 L 450.429 518.025 Q 450.868 517.923 451.347 517.698 L 451.347 517.698 L 451.347 518.85 L 451.347 518.85 Q 450.956 519.046 450.512 519.141 L 450.512 519.141 L 450.512 519.141 Q 450.068 519.236 449.428 519.236 Z  M 457.996 515.11 L 457.996 515.11 L 457.996 515.11 Q 457.996 515.549 457.72 515.86 L 457.72 515.86 L 457.72 515.86 Q 457.445 516.17 456.907 516.258 L 456.907 516.258 L 456.907 516.297 L 456.907 516.297 Q 457.488 516.365 457.828 516.695 L 457.828 516.695 L 457.828 516.695 Q 458.167 517.024 458.167 517.508 L 458.167 517.508 L 458.167 517.508 Q 458.167 518.303 457.542 518.721 L 457.542 518.721 L 457.542 518.721 Q 456.917 519.138 455.755 519.138 L 455.755 519.138 L 452.957 519.138 L 452.957 513.679 L 455.755 513.679 L 455.755 513.679 Q 456.878 513.679 457.437 514.043 L 457.437 514.043 L 457.437 514.043 Q 457.996 514.407 457.996 515.11 Z  M 456.624 517.429 L 456.624 517.429 L 456.624 517.429 Q 456.624 517.107 456.375 516.963 L 456.375 516.963 L 456.375 516.963 Q 456.126 516.819 455.628 516.819 L 455.628 516.819 L 454.446 516.819 L 454.446 518.108 L 455.657 518.108 L 455.657 518.108 Q 456.131 518.108 456.378 517.93 L 456.378 517.93 L 456.378 517.93 Q 456.624 517.752 456.624 517.429 Z  M 456.487 515.227 L 456.487 515.227 L 456.487 515.227 Q 456.487 514.729 455.696 514.729 L 455.696 514.729 L 454.446 514.729 L 454.446 515.808 L 455.526 515.808 L 455.526 515.808 Q 455.999 515.808 456.243 515.672 L 456.243 515.672 L 456.243 515.672 Q 456.487 515.535 456.487 515.227 Z  M 461.174 519.236 L 461.174 519.236 L 461.174 519.236 Q 458.625 519.236 458.625 516.438 L 458.625 516.438 L 458.625 516.438 Q 458.625 515.047 459.319 514.312 L 459.319 514.312 L 459.319 514.312 Q 460.012 513.577 461.306 513.577 L 461.306 513.577 L 461.306 513.577 Q 462.253 513.577 463.005 513.948 L 463.005 513.948 L 462.566 515.1 L 462.566 515.1 Q 462.214 514.959 461.911 514.868 L 461.911 514.868 L 461.911 514.868 Q 461.609 514.778 461.306 514.778 L 461.306 514.778 L 461.306 514.778 Q 460.144 514.778 460.144 516.428 L 460.144 516.428 L 460.144 516.428 Q 460.144 518.03 461.306 518.03 L 461.306 518.03 L 461.306 518.03 Q 461.736 518.03 462.102 517.915 L 462.102 517.915 L 462.102 517.915 Q 462.468 517.8 462.834 517.556 L 462.834 517.556 L 462.834 518.831 L 462.834 518.831 Q 462.473 519.06 462.104 519.148 L 462.104 519.148 L 462.104 519.148 Q 461.736 519.236 461.174 519.236 Z  M 465.446 516.331 L 467.536 513.679 L 469.177 513.679 L 467.014 516.297 L 469.367 519.138 L 467.678 519.138 L 465.446 516.37 L 465.446 519.138 L 463.957 519.138 L 463.957 513.679 L 465.446 513.679 L 465.446 516.331 Z  M 474.464 519.138 L 473.424 519.138 L 473.136 518.396 L 473.097 518.396 L 473.097 518.396 Q 472.721 518.87 472.323 519.053 L 472.323 519.053 L 472.323 519.053 Q 471.925 519.236 471.285 519.236 L 471.285 519.236 L 471.285 519.236 Q 470.499 519.236 470.048 518.787 L 470.048 518.787 L 470.048 518.787 Q 469.596 518.338 469.596 517.508 L 469.596 517.508 L 469.596 517.508 Q 469.596 516.638 470.204 516.226 L 470.204 516.226 L 470.204 516.226 Q 470.812 515.813 472.037 515.769 L 472.037 515.769 L 472.985 515.74 L 472.985 515.501 L 472.985 515.501 Q 472.985 514.671 472.135 514.671 L 472.135 514.671 L 472.135 514.671 Q 471.481 514.671 470.597 515.066 L 470.597 515.066 L 470.104 514.06 L 470.104 514.06 Q 471.046 513.567 472.194 513.567 L 472.194 513.567 L 472.194 513.567 Q 473.292 513.567 473.878 514.046 L 473.878 514.046 L 473.878 514.046 Q 474.464 514.524 474.464 515.501 L 474.464 515.501 L 474.464 519.138 Z  M 472.985 517.058 L 472.985 516.609 L 472.408 516.629 L 472.408 516.629 Q 471.759 516.648 471.442 516.863 L 471.442 516.863 L 471.442 516.863 Q 471.124 517.078 471.124 517.517 L 471.124 517.517 L 471.124 517.517 Q 471.124 518.147 471.847 518.147 L 471.847 518.147 L 471.847 518.147 Q 472.364 518.147 472.674 517.849 L 472.674 517.849 L 472.674 517.849 Q 472.985 517.551 472.985 517.058 L 472.985 517.058 Z  M 478.018 517.107 L 476.787 519.138 L 475.176 519.138 L 476.646 516.98 L 476.646 516.98 Q 476.118 516.76 475.847 516.345 L 475.847 516.345 L 475.847 516.345 Q 475.576 515.93 475.576 515.369 L 475.576 515.369 L 475.576 515.369 Q 475.576 514.578 476.17 514.129 L 476.17 514.129 L 476.17 514.129 Q 476.763 513.679 477.788 513.679 L 477.788 513.679 L 480.327 513.679 L 480.327 519.138 L 478.838 519.138 L 478.838 517.107 L 478.018 517.107 Z  M 477.036 515.379 L 477.036 515.379 L 477.036 515.379 Q 477.036 515.72 477.305 515.913 L 477.305 515.913 L 477.305 515.913 Q 477.573 516.106 478.008 516.106 L 478.008 516.106 L 478.838 516.106 L 478.838 514.729 L 477.818 514.729 L 477.818 514.729 Q 477.451 514.729 477.244 514.907 L 477.244 514.907 L 477.244 514.907 Q 477.036 515.086 477.036 515.379 Z " fill="rgb(0,0,0)"/><path d=" M 346.47 451.827 L 345.879 459.5 L 339.977 459.5 L 339.387 464.812 L 342.928 465.107 L 342.338 470.42 L 338.797 469.829 L 337.911 473.371 L 308.104 470.715 L 309.58 455.369 L 337.616 458.025 L 337.616 454.778 L 341.748 455.369 L 342.338 451.237 L 346.47 451.827 Z " fill="none" vector-effect="non-scaling-stroke" stroke-width="1" stroke="rgb(0,0,0)" stroke-linejoin="miter" stroke-linecap="square" stroke-miterlimit="3"/><path d=" M 297 324 L 299 316 L 346 319 L 348 310 L 369 312 L 366 332 L 361 332 L 348 452 L 333.902 450 L 348 332 L 346 327 L 297 324 Z " fill="none" vector-effect="non-scaling-stroke" stroke-width="1" stroke="rgb(0,0,0)" stroke-linejoin="miter" stroke-linecap="square" stroke-miterlimit="3"/><path d=" M 337 129 L 344 129 L 339 167 L 331 167 L 331 178 L 348 178 L 356.5 120 L 337 118 L 337 129 Z " fill="none" vector-effect="non-scaling-stroke" stroke-width="1" stroke="rgb(0,0,0)" stroke-linejoin="miter" stroke-linecap="square" stroke-miterlimit="3"/><path d=" M 437.865 493.23 L 437.883 494.301 L 442.252 494.318 L 442.252 493.195 L 441.621 493.195 L 442.235 491.335 L 444.042 494.336 L 445.868 491.352 L 446.534 493.213 L 445.885 493.23 L 445.885 494.283 L 450.202 494.336 L 450.185 493.23 L 449.377 493.213 L 446.482 485.895 L 444.06 490.177 L 441.621 485.912 L 438.76 493.213 L 437.865 493.23 Z " fill="rgb(255,0,0)"/><path d=" M 443.942 505.785 C 444.006 505.737 443.942 505.785 443.942 505.785 L 451.7 498.172 Q 454.716 494.58 454.477 490.845 C 454.19 485.195 449.88 480.855 444.325 480.742 C 438.771 480.628 433.737 485.371 433.791 491.18 Q 433.935 495.442 436.951 498.65" fill="none" vector-effect="non-scaling-stroke" stroke-width="2" stroke="rgb(255,0,0)" stroke-linejoin="miter" stroke-linecap="round" stroke-miterlimit="3"/><rect x="442.964" y="504.714" width="2.005" height="2.11" transform="matrix(-0.698,-0.717,0.717,-0.698,391.245,1176.686)" fill="rgb(255,0,0)"/><path d=" M 367.675 568.017 Q 373.946 509.75 381 438 C 386.115 360.115 389.094 274.659 391.073 244.283 C 393.052 213.907 402.727 138.493 420.099 18.041" fill="none" vector-effect="non-scaling-stroke" stroke-width="3" stroke="rgb(0,0,0)" stroke-linejoin="miter" stroke-linecap="round" stroke-miterlimit="3"/><path d=" M 380.748 553.637 Q 385.946 509.75 393 438 C 398.115 360.115 399.944 292.324 403.073 244.283 Q 406.202 196.242 429.771 36.277" fill="none" vector-effect="non-scaling-stroke" stroke-width="3" stroke="rgb(0,0,0)" stroke-linejoin="miter" stroke-linecap="round" stroke-miterlimit="3"/><path d=" M 429 494 L 402 494 L 402.73 473 L 366 470 L 383.01 200.5 L 356.5 197 L 359.634 158.647 L 354.342 157.72" fill="none" vector-effect="non-scaling-stroke" stroke-width="3" stroke-dasharray="10,12" stroke="rgb(255,0,0)" stroke-linejoin="miter" stroke-linecap="square" stroke-miterlimit="3"/><path d=" M 407.306 210.09 Q 491.671 218.855 529.745 223.512 Q 567.818 228.168 638 231 M 398.667 336.667 Q 414.114 318.853 422.667 317.333 C 431.219 315.814 460.439 320.537 488.479 323.488 C 522.717 326.735 552.527 332.933 569.646 331.752 Q 605.103 329.307 664.667 314.667 M 422.365 316.995 Q 411.739 313.158 401.333 296.667 M 548.686 152.473 Q 568.014 152.473 567.477 155.425 C 563.935 188.295 564.095 202.971 560.498 244.01 C 557.352 279.901 552.196 326.907 545 385 M 547 366 L 518 363" fill-rule="evenodd" fill="none" vector-effect="non-scaling-stroke" stroke-width="2" stroke="rgb(0,0,0)" stroke-linejoin="miter" stroke-linecap="square" stroke-miterlimit="3"/></g></svg>