<svg height="512" viewBox="0 0 64 64" width="512" xmlns="http://www.w3.org/2000/svg" xmlns:xlink="http://www.w3.org/1999/xlink"><linearGradient id="gradient_ice" gradientUnits="userSpaceOnUse" x1="4.837" x2="58.089" y1="59.474" y2="-.724"><stop offset="0" stop-color="#fff200"/><stop offset="1" stop-color="#cd118c"/></linearGradient><path d="m57 23.14v-9.14a1.023 1.023 0 0 0 -.58-.91l-24-11a1.025 1.025 0 0 0 -.84 0l-24 11a1 1 0 0 0 .07 1.85l8.35 3.13v10.93a1.009 1.009 0 0 0 .27.67 20 20 0 1 0 31.46 0 1.009 1.009 0 0 0 .27-.67v-10.93l7-2.63v7.7a4 4 0 1 0 2 0zm-32 35.44a17.947 17.947 0 0 1 -10.07-22.25l2.31 1.38.87 1.74a.53.53 0 0 0 .06.1l2 3a1 1 0 0 0 .83.45h2.38l.62 1.24v2.64l-.97 3.88a.963.963 0 0 0 .14.79l1.83 2.75zm13 .37v-.95a1.033 1.033 0 0 0 -.29-.71l-2.79-2.78-.82-4.11 4.18-3.34 5.13.86 1.76 2.63a.955.955 0 0 0 .12.16l1.51 1.51a18.093 18.093 0 0 1 -8.8 6.73zm9.88-8.49-1.1-1.1-1.95-2.91a1.007 1.007 0 0 0 -.67-.44l-6-1a1.007 1.007 0 0 0 -.78.21l-5 4a.993.993 0 0 0 -.36.98l1 5a1.014 1.014 0 0 0 .27.51l2.71 2.7v1.13a18.164 18.164 0 0 1 -4 .46 17.931 17.931 0 0 1 -5-.72v-5.28a.967.967 0 0 0 -.17-.55l-1.75-2.64.89-3.57a.986.986 0 0 0 .03-.24v-3a1 1 0 0 0 -.11-.45l-1-2a.977.977 0 0 0 -.89-.55h-2.46l-1.67-2.5-.98-1.95a.938.938 0 0 0 -.38-.41l-2.83-1.7a18.032 18.032 0 0 1 2.94-4.44h16.97l-3.3 3.29a.985.985 0 0 0 -.26.95l1 4a.953.953 0 0 0 .26.47l3 3a.985.985 0 0 0 .95.26l7.44-1.86 5 5.19a17.862 17.862 0 0 1 -1.8 5.16zm-29.88-22.46v-9.18l13.65 5.12a1.051 1.051 0 0 0 .7 0l13.65-5.12v9.18zm32 14c0 .24-.03.47-.04.71l-4.24-4.4a.984.984 0 0 0 -.96-.28l-7.45 1.86-2.41-2.4-.79-3.18 4.3-4.31h6.97a17.835 17.835 0 0 1 4.62 12zm-18-20.07-21.4-8.02 21.4-9.81 21.4 9.81zm24 7.07a2 2 0 1 1 2-2 2.006 2.006 0 0 1 -2 2z" fill="url(#gradient_ice)"/></svg>