<svg height="512" viewBox="0 0 64 64" width="512" xmlns="http://www.w3.org/2000/svg" xmlns:xlink="http://www.w3.org/1999/xlink"><linearGradient id="gradient_ice" gradientUnits="userSpaceOnUse" x1="-.384" x2="65.603" y1="62.111" y2=".755"><stop offset="0" stop-color="#fff200"/><stop offset="1" stop-color="#cd118c"/></linearGradient><linearGradient id="gradient_ice-2" x1="5.876" x2="71.862" xlink:href="#gradient_ice" y1="68.843" y2="7.487"/><linearGradient id="gradient_ice-3" x1="-1.108" x2="64.879" xlink:href="#gradient_ice" y1="61.332" y2="-.023"/><path d="m32 24a8 8 0 1 0 8 8 8.011 8.011 0 0 0 -8-8zm0 14a6 6 0 1 1 6-6 6 6 0 0 1 -6 6z" fill="url(#gradient_ice)"/><path d="m61 33h-17v-3h2a1 1 0 0 0 1-1v-2a1 1 0 0 0 -.42-.81l-13.58-9.7v-2.49h13a1 1 0 0 0 .94-.67.983.983 0 0 0 -.32-1.11l-4.02-3.22 4.02-3.22a.983.983 0 0 0 .32-1.11 1 1 0 0 0 -.94-.67h-13v-1a1 1 0 0 0 -1-1 1 1 0 0 0 -1 1v13.49l-13.58 9.7a1 1 0 0 0 -.42.81v2a1 1 0 0 0 1 1h2v3h-17a1 1 0 0 0 -1 1v4a1 1 0 0 0 1 1h1v22a1 1 0 0 0 1 1h54a1 1 0 0 0 1-1v-22h1a1 1 0 0 0 1-1v-4a1 1 0 0 0 -1-1zm-28-27h10.15l-2.77 2.22a.991.991 0 0 0 0 1.56l2.77 2.22h-10.15zm-13 54h-14v-21h14zm0-23h-16v-2h16zm15 23h-6v-8a3 3 0 0 1 6 0zm7-31v31h-5v-8a5 5 0 0 0 -10 0v8h-5v-31a1 1 0 0 0 -1-1h-2v-.49l13-9.28 13 9.28v.49h-2a1 1 0 0 0 -1 1zm16 31h-14v-21h14zm2-23h-16v-2h16z" fill="url(#gradient_ice-2)"/><path d="m32 28a1 1 0 0 1 1 1v3a1.033 1.033 0 0 1 -.29.71l-1.291 1.29a1 1 0 0 1 -1.419 0 1 1 0 0 1 0-1.42l1-.991v-2.589a1 1 0 0 1 1-1z" fill="url(#gradient_ice-3)"/></svg>