<?xml version="1.0" encoding="UTF-8" standalone="no"?>
<!-- Created with Inkscape (http://www.inkscape.org/) -->

<svg
   xmlns:dc="http://purl.org/dc/elements/1.1/"
   xmlns:cc="http://creativecommons.org/ns#"
   xmlns:rdf="http://www.w3.org/1999/02/22-rdf-syntax-ns#"
   xmlns:svg="http://www.w3.org/2000/svg"
   xmlns="http://www.w3.org/2000/svg"
   xmlns:sodipodi="http://sodipodi.sourceforge.net/DTD/sodipodi-0.dtd"
   xmlns:inkscape="http://www.inkscape.org/namespaces/inkscape"
   width="100mm"
   height="100mm"
   viewBox="0 0 100 100"
   version="1.1"
   id="svg1773"
   inkscape:version="0.92.3 (2405546, 2018-03-11)"
   sodipodi:docname="shadowed-logo.svg">
  <defs
     id="defs1767" />
  <sodipodi:namedview
     id="base"
     pagecolor="#ffffff"
     bordercolor="#666666"
     borderopacity="1.0"
     inkscape:pageopacity="0.0"
     inkscape:pageshadow="2"
     inkscape:zoom="1.4"
     inkscape:cx="240.24088"
     inkscape:cy="178.7549"
     inkscape:document-units="mm"
     inkscape:current-layer="layer1"
     showgrid="false"
     inkscape:window-width="1366"
     inkscape:window-height="712"
     inkscape:window-x="0"
     inkscape:window-y="0"
     inkscape:window-maximized="1" />
  <metadata
     id="metadata1770">
    <rdf:RDF>
      <cc:Work
         rdf:about="">
        <dc:format>image/svg+xml</dc:format>
        <dc:type
           rdf:resource="http://purl.org/dc/dcmitype/StillImage" />
        <dc:title></dc:title>
      </cc:Work>
    </rdf:RDF>
  </metadata>
  <g
     inkscape:label="Layer 1"
     inkscape:groupmode="layer"
     id="layer1"
     transform="translate(0,-197)">
    <path
       style="fill:#ffffff;fill-opacity:1;stroke:none;stroke-width:7.60525084;stroke-linecap:butt;stroke-linejoin:bevel;stroke-miterlimit:4;stroke-dasharray:none;stroke-opacity:1"
       d="M 0,197 V 297 H 100 V 197 Z m 51.440015,2.7786 1.491482,0.0388 c 0,0 12.883922,8.35676 13.163944,24.59963 0.103612,6.0083 -1.220396,11.02422 -3.213857,15.34368 -4.671707,2.62053 -8.281683,6.05979 -10.249269,8.34661 l -0.01278,0.0163 c -6.110871,7.23327 -9.617368,12.17043 -11.731414,16.367 -2.114049,4.19657 -2.758765,7.65538 -3.140169,11.34233 -0.126426,1.22198 -0.09593,2.38349 0.04274,3.48012 l -5.194146,-1.62022 c 0,0 0.120703,-0.40957 0.138536,-0.47849 0.01503,-0.0482 0.23376,-0.77384 0.498143,-1.90758 l 1.33968,0.41757 c 0,0 0.182796,-0.56284 0.256441,-0.76441 0.22595,-0.84534 3.50749,-12.95195 11.374757,-22.86791 5.855696,-7.38058 15.00107,-16.0747 14.737958,-31.33486 -0.181185,-10.50932 -5.852737,-17.53279 -9.502052,-20.9785 z m -4.352611,2.30255 c 1.639285,1.28257 5.020634,4.33302 7.207355,9.30507 -1.230877,-1.67705 -2.501216,-2.94795 -3.493391,-3.82352 -2.979771,2.31744 -8.439905,7.52541 -9.348775,15.55395 -0.898956,7.94066 2.05952,14.60824 5.458938,20.84979 -0.657906,0.8063 -1.321306,1.60404 -1.981272,2.39884 -4.32522,-7.76844 -9.846988,-16.26562 -8.621708,-27.08885 1.097637,-9.69569 8.150868,-15.37222 10.778853,-17.19528 z m 37.514491,37.50467 c 7.778057,2.62629 12.316817,11.66864 9.332564,20.62135 -1.386403,4.15921 -4.830405,7.41014 -9.173885,9.14638 -4.343507,1.73623 -9.989124,1.63301 -14.615634,-1.91888 -2.107202,-1.61776 -3.304188,-3.65212 -3.98318,-5.71047 0.322661,0.32209 0.673841,0.63267 1.059169,0.92849 4.229813,3.24733 9.27437,3.32401 13.257778,1.73172 3.983406,-1.5923 7.157008,-4.65058 8.373125,-8.29895 2.15713,-6.47136 0.0891,-12.86385 -4.249937,-16.49964 z m -9.862641,1.35884 c 1.282998,-0.003 2.573045,0.16514 3.855939,0.54089 2.956439,0.86589 5.337954,3.31511 6.190928,6.57558 -0.820992,-0.72498 -1.77929,-1.26018 -2.81053,-1.56222 -1.022603,-0.2995 -2.055887,-0.4527 -3.091533,-0.48045 -3.106902,-0.0835 -6.235664,0.96181 -9.161113,2.58159 -0.09454,0.0524 -0.162556,0.12481 -0.256441,0.17833 l 4.089292,4.38504 c 0,0 -0.671137,1.5477 -0.810096,3.46685 -0.110694,1.52901 0.0086,2.87248 0.980564,4.06227 -1.235447,-0.23169 -2.476033,-0.76866 -3.693331,-1.70321 -2.252447,-1.72925 -2.5953,-3.9522 -2.436676,-6.14327 0.158661,-2.19108 0.927018,-3.93602 0.927018,-3.93602 l -2.904361,-3.11463 c 0,0 -7.767069,2.95886 -10.51406,11.95347 -2.911505,9.53326 2.646445,18.33108 2.646445,18.33108 l 3.94093,-2.40426 c 0,0 -4.347686,-7.44701 -2.169918,-14.5778 0.823945,-2.69783 2.156376,-4.46768 3.481598,-5.84606 -0.0509,2.45187 0.510928,5.40917 2.573738,7.84109 -0.355056,0.63008 -0.70802,1.26208 -0.961407,2.0918 -1.957666,6.41005 2.027453,13.45281 2.027453,13.45281 l -6.307845,3.84711 c 0,0 -0.787878,-1.48644 -1.626581,-3.50273 0.0033,0.57743 0.08419,1.11489 0.04864,1.71157 -0.06165,10.21173 -7.855333,16.15084 -7.855333,16.15084 l -4.713198,-0.17686 c 0,0 -2.919044,-2.53102 -4.731377,-6.80795 1.038453,1.34402 1.886949,2.09279 1.886949,2.09279 l 2.945627,0.11053 c 0,0 7.274912,-5.55919 7.317398,-15.08872 0.386558,-6.27423 -1.639013,-11.44225 -3.33127,-16.43578 1.636883,-2.20155 3.392424,-4.50093 5.856864,-7.41859 1.639163,-1.90507 5.052494,-5.14653 9.149817,-7.41516 2.944928,-1.63057 6.177139,-2.75327 9.455874,-2.75993 z m -43.782546,0.0118 c 2.222028,0.97373 4.20133,2.21447 5.874551,3.49486 1.312002,1.00398 2.415118,2.02212 3.406434,3.01145 0.559458,0.97653 1.095183,1.92067 1.582857,2.82723 -2.246171,2.9795 -4.04613,6.0058 -5.591582,8.97738 -0.327768,-1.75173 -0.794755,-3.50403 -1.632476,-5.18776 -1.595054,-3.20582 -3.765012,-5.0866 -5.568001,-6.09169 -1.802985,-1.00508 -3.443277,-1.19378 -3.443277,-1.19378 l -0.0221,0.0315 c -1.074345,-0.29219 -2.197014,-0.46293 -3.374501,-0.46768 -1.305773,-0.005 -2.672252,0.18489 -4.096662,0.61849 -2.868395,0.87316 -4.362547,2.45363 -5.172532,4.4607 -0.80998,2.00707 -0.808556,4.56609 0.187173,7.08011 0.361972,0.9139 0.824736,1.69653 1.366208,2.35071 -2.788013,-0.49577 -5.1785825,-2.38041 -6.4237844,-5.52428 -1.1131727,-2.81055 -1.1412246,-5.73307 -0.1822596,-8.10931 0.9589656,-2.37624 2.828005,-4.28494 6.055335,-5.26735 6.226127,-1.89525 11.487072,0.50151 15.492543,3.56658 4.005462,3.06508 6.388904,6.63209 6.388904,6.63209 l 3.847098,-2.55606 c 0,0 -2.749214,-4.16193 -7.429405,-7.74333 -0.402804,-0.30823 -0.828525,-0.61103 -1.264516,-0.90981 z M 28.757804,253.665 c 0.579878,0.63265 1.167175,1.39074 1.704692,2.47106 1.302374,2.61763 1.597497,5.79899 1.457584,8.75434 -0.07197,0.10344 -0.143708,0.20725 -0.220577,0.30951 -1.613649,2.14661 -4.16761,3.85403 -7.525203,4.84092 -7.16796,2.10682 -15.0368716,-1.47904 -17.9380601,-8.80396 -0.030707,-0.0775 -0.057308,-0.15608 -0.086954,-0.23384 3.4013688,3.9246 8.7893071,5.51742 13.8654711,4.02543 3.137602,-0.92222 5.393267,-2.46396 6.807463,-4.34524 1.414184,-1.88129 1.933901,-4.00416 2.003872,-5.86375 0.01542,-0.40926 -0.04751,-0.76534 -0.06829,-1.15447 z m 18.224959,9.7359 c 1.055167,3.21882 1.966566,6.34976 2.048579,9.65778 -0.952548,2.40399 -1.268449,4.41475 -1.543556,7.07421 -0.0458,0.44319 -0.05519,0.87581 -0.03488,1.29645 -0.768627,1.44523 -1.689375,2.509 -2.439622,3.27969 -1.344479,-1.66839 -3.090651,-4.35027 -2.671503,-8.40211 0.360191,-3.48174 0.828418,-6.08357 2.669536,-9.73835 0.452821,-0.89886 1.324412,-2.1216 1.971446,-3.16767 z"
       id="rect2368"
       inkscape:connector-curvature="0"
       sodipodi:nodetypes="cccccccccccsccccccccccccccccscccccccscccsccccccccccccscccccccccccccccccccccscccccccccsccccccccccccccccccccccccccscccccc" />
  </g>
</svg>
