<svg height="512" viewBox="0 0 64 64" width="512" xmlns="http://www.w3.org/2000/svg" xmlns:xlink="http://www.w3.org/1999/xlink"><linearGradient id="gradient_ice" gradientUnits="userSpaceOnUse" x1="4.094" x2="65.45" y1="70.836" y2="14.111"><stop offset="0" stop-color="#fff200"/><stop offset="1" stop-color="#cd118c"/></linearGradient><linearGradient id="gradient_ice-2" x1="-2.216" x2="59.14" xlink:href="#gradient_ice" y1="64.011" y2="7.286"/><linearGradient id="gradient_ice-3" x1="2.392" x2="63.748" xlink:href="#gradient_ice" y1="68.996" y2="12.27"/><linearGradient id="gradient_ice-4" x1=".337" x2="61.693" xlink:href="#gradient_ice" y1="66.773" y2="10.047"/><path d="m32 46c-2.577 0-4.367-.845-4.862-1.6a.941.941 0 0 0 -.8-.4 1 1 0 0 0 -.854 1.523c1.01 1.477 3.479 2.477 6.516 2.477s5.506-1 6.512-2.477a1 1 0 0 0 -.854-1.523.941.941 0 0 0 -.8.4c-.491.755-2.281 1.6-4.858 1.6z" fill="url(#gradient_ice)"/><rect fill="url(#gradient_ice-2)" height="4" rx="1" width="2" x="26" y="35"/><rect fill="url(#gradient_ice-3)" height="4" rx="1" width="2" x="36" y="35"/><path d="m52 27a4 4 0 1 0 5-3.86v-9.14a1.023 1.023 0 0 0 -.58-.91l-24-11a1.025 1.025 0 0 0 -.84 0l-24 11a1 1 0 0 0 .07 1.85l8.35 3.13v10.03a5 5 0 0 0 1 9.9 15 15 0 0 0 7 12.67v2.33h-9a8.011 8.011 0 0 0 -8 8 1 1 0 0 0 1 1h48a1 1 0 0 0 1-1 8.011 8.011 0 0 0 -8-8h-9v-2.33a15 15 0 0 0 7-12.67 5 5 0 0 0 1-9.9v-10.03l7-2.63v7.7a4 4 0 0 0 -3 3.86zm-35 9a3 3 0 0 1 0-6zm32 19a6.017 6.017 0 0 1 5.92 5h-45.84a6.017 6.017 0 0 1 5.92-5h9v2a1 1 0 0 0 .86.99l7 1a.985.985 0 0 0 .28 0l7-1a1 1 0 0 0 .86-.99v-2zm-23 1.13v-4.39a14.916 14.916 0 0 0 12 0v4.39l-6 .86zm19-18.13a13 13 0 0 1 -26 0v-8h26zm1-10h-28v-9.18l13.65 5.12a1.051 1.051 0 0 0 .7 0l13.65-5.12zm4 5a3.009 3.009 0 0 1 -3 3v-6a3.009 3.009 0 0 1 3 3zm-18-11.07-21.4-8.02 21.4-9.81 21.4 9.81zm24 3.07a2 2 0 1 1 -2 2 2.006 2.006 0 0 1 2-2z" fill="url(#gradient_ice-4)"/></svg>