<?xml version="1.0" encoding="UTF-8" standalone="no"?><!-- Generator: Gravit.io --><svg xmlns="http://www.w3.org/2000/svg" xmlns:xlink="http://www.w3.org/1999/xlink" style="isolation:isolate" viewBox="0 0 436 436" width="436pt" height="436pt"><defs><clipPath id="_clipPath_483cy3NL2vJl1b7nRcKzzSsualQv3nTz"><rect width="436" height="436"/></clipPath></defs><g clip-path="url(#_clipPath_483cy3NL2vJl1b7nRcKzzSsualQv3nTz)"><clipPath id="_clipPath_vbopDaFvaNjkrLxqnl6kFzG8kNdNISGh"><rect x="0" y="0" width="512" height="512" transform="matrix(1,0,0,1,0,0)" fill="rgb(255,255,255)"/></clipPath><g clip-path="url(#_clipPath_vbopDaFvaNjkrLxqnl6kFzG8kNdNISGh)"><g><g><path d=" M 333.662 234.486 C 330.162 229.786 330.92 226.704 333.6 221.993 Q 336.943 216.122 352.209 188.822 L 383.459 131.126 L 389.459 118.732 Q 377.389 118.732 375.01 118.732 C 374.982 118.732 332.963 118.005 314.811 118.095 Q 312.607 118.105 302.014 118.095 Q 298.738 128.142 298.111 130.255 C 295.928 137.622 287.4 157.544 277.064 175.782 C 263.459 199.595 262.084 199.595 257.459 205.345 C 252.459 210.22 252.584 210.845 250.209 210.97 C 248.084 210.095 248.529 203.365 247.807 194.626 Q 247.053 185.486 247.807 163.74 L 248.217 132.743 L 247.807 118.095 Q 242.126 118.095 233.982 118.095 C 221.649 117.816 211.369 118.216 199.885 118.095 Q 172.686 117.825 155.792 118.095 L 163.126 128.095 Q 164.959 130.095 167.792 135.095 C 171.209 140.595 172.467 143.786 174.209 156.072 C 175.314 163.911 175.893 177.075 174.693 188.822 C 173.006 205.392 169.447 212.38 168.592 212.099 C 167.736 211.818 161.057 205.798 148.994 181.322 C 143.804 171.92 133.632 150.082 130.459 140.095 Q 126.581 127.888 123.173 118.732 Q 118.574 118.095 116.51 118.095 L 56.721 118.095 Q 53.424 118.095 42.792 118.732 Q 46.201 128.622 47.393 131.7 C 66.123 180.2 87.615 229.876 117.76 264.638 C 148.951 300.611 185.975 317.993 233.982 317.993 Q 236.744 317.993 245.459 317.993 Q 245.459 303.422 245.459 294.095 C 246.168 289.631 246.853 282.475 247.807 277.595 Q 249.959 263.845 255.709 264.638 Q 261.459 265.431 269.709 274.845 L 281.959 292.295 L 302.014 317.993 Q 319.201 318.087 325.529 317.993 L 375.459 317.993 L 393.209 317.993 L 385.451 307.681 Q 342.792 246.428 333.662 234.486 L 333.662 234.486 Z  M 341.459 302.095 C 341.404 302.095 325.354 302.095 325.299 302.095 Q 321.127 302.197 308.059 302.095 L 281.959 266.845 Q 277.022 259.931 273.209 256.845 C 269.396 253.759 260.426 246.992 251.787 248.595 C 243.148 250.198 236.728 262.172 233.982 269.204 C 231.459 281.762 230.311 288.111 229.459 300.095 C 189.459 303.762 153.273 280.845 127.859 251.533 C 102.453 222.232 83.272 177.408 66.459 135.095 L 109.592 135.095 C 128.126 174.428 132.126 190.762 150.459 216.762 C 161.709 230.095 167.959 234.376 171.959 234.486 C 175.959 234.595 177.084 231.72 180.084 226.345 Q 182.584 222.97 185.459 214.345 C 193.959 187.845 190.529 153.771 190.459 153.271 Q 188.209 143.095 186.209 135.095 L 230.459 135.095 Q 232.542 150.973 232.209 163.74 C 234.709 207.556 236.709 218.259 238.459 223.427 C 240.209 228.595 240.101 231.502 244.123 232.595 C 248.146 233.688 252.834 227.97 255.959 224.595 Q 273.209 207.095 288.709 187.322 C 298.709 172.595 310.424 146.56 314.811 135.095 C 329.26 135.068 351.416 135.083 364.709 135.095 C 356.459 149.595 344.459 170.595 335.459 185.747 C 329.08 197.345 323.209 206.095 317.459 216.099 Q 313.974 222.163 311.371 230.385 L 322.459 246.603 L 331.709 259.845 L 362.26 302.095 L 341.459 302.095 Z " fill="rgb(0,0,0)"/><path d=" M 393.422 0 L 42.578 0 C 19.101 0 0 19.101 0 42.578 L 0 393.422 C 0 416.899 19.101 436 42.578 436 L 393.422 436 C 416.899 436 436 416.899 436 393.422 L 436 193.588 L 436 42.578 C 436 19.101 416.899 0 393.422 0 Z  M 422.375 393.422 C 422.375 407.509 407.509 422.375 393.422 422.375 L 42.578 422.375 C 28.491 422.375 13.625 407.509 13.625 393.422 L 13.625 42.578 C 13.625 28.491 28.491 13.625 42.578 13.625 L 393.422 13.625 C 407.509 13.625 422.375 28.491 422.375 42.578 L 422.375 393.422 Z " fill="rgb(0,0,0)"/></g></g></g></g></svg>